<?xml version="1.0" encoding="utf-8"?>
<!-- Generator: Adobe Illustrator 24.0.2, SVG Export Plug-In . SVG Version: 6.00 Build 0)  -->
<svg version="1.1" id="图层_1" xmlns="http://www.w3.org/2000/svg" xmlns:xlink="http://www.w3.org/1999/xlink" x="0px" y="0px"
	 viewBox="0 0 200 200" style="enable-background:new 0 0 200 200;" xml:space="preserve">
<style type="text/css">
	.st0{fill:#FFFFFF;}
</style>
<path class="st0" d="M100,12.5c-48.3,0-87.5,39.3-87.5,87.5s39.3,87.5,87.5,87.5s87.5-39.3,87.5-87.5S148.3,12.5,100,12.5z M100,175
	c-41.4,0-75-33.6-75-75s33.6-75,75-75s75,33.6,75,75S141.4,175,100,175z"/>
<path class="st0" d="M155,87.5h1.3c3.5,0,6.3-2.8,6.3-6.3s-2.8-6.3-6.3-6.3h-9.1l-4.3-14.7c-2.2-5.9-8.8-10.3-15.3-10.3H71.1
	c-6.6,0-13.2,4.4-15.5,10.7L51.5,75h-7.7c-3.5,0-6.3,2.8-6.3,6.3s2.8,6.3,6.3,6.3H45c-4.6,2-7.5,6.5-7.5,11.5v37.5h6.8v2.6
	c0,3.5,2.8,6.3,6.3,6.3s6.3-2.8,6.3-6.3v-2.6h87.5v2.6c0,3.5,2.8,6.3,6.3,6.3c3.5,0,6.3-2.8,6.3-6.3v-2.6h5.7V99
	C162.5,94,159.5,89.5,155,87.5z M50,124V99h100v25H50z M71.1,62.5h56.4c1.5,0,3.3,1.3,3.5,1.8l6.5,22.2H61.1l0.8-2.6
	c0.2-0.3,0.2-0.7,0.3-1.1l5.3-18.1C67.8,63.8,69.6,62.5,71.1,62.5L71.1,62.5z"/>
<path class="st0" d="M112.5,107.6h-25c-3.5,0-6.3,2.8-6.3,6.3c0,3.5,2.8,6.3,6.3,6.3h25c3.5,0,6.3-2.8,6.3-6.3
	C118.8,110.3,116,107.6,112.5,107.6z"/>
</svg>
